<?xml version="1.0" standalone="no"?>
<!DOCTYPE svg PUBLIC "-//W3C//DTD SVG 20010904//EN"
 "http://www.w3.org/TR/2001/REC-SVG-20010904/DTD/svg10.dtd">
<svg version="1.0" xmlns="http://www.w3.org/2000/svg"
 width="16.000000pt" height="16.000000pt" viewBox="0 0 16.000000 16.000000"
 preserveAspectRatio="xMidYMid meet">
<metadata>
Created by potrace 1.11, written by Peter Selinger 2001-2013
</metadata>
<g transform="translate(0.000000,16.000000) scale(0.006154,-0.006154)"
fill="#000000" stroke="none">
<path d="M1887 2563 c-2 -1 -22 -5 -45 -8 -113 -14 -234 -77 -327 -170 -69
-69 -77 -80 -121 -161 -19 -36 -48 -120 -60 -179 -9 -38 -2 -194 9 -225 9 -25
20 -75 19 -82 -1 -5 3 -8 8 -8 5 0 9 -3 8 -7 -4 -13 24 -73 33 -73 5 0 9 -9 9
-20 0 -11 5 -20 10 -20 6 0 14 -8 17 -17 6 -16 94 -106 138 -142 34 -28 190
-98 218 -99 4 0 26 -4 50 -7 60 -11 137 -12 143 -3 3 4 11 5 18 2 35 -13 193
44 276 100 52 35 150 130 150 145 0 6 5 11 10 11 6 0 10 7 10 15 0 8 3 15 8
15 4 0 12 12 19 28 55 127 60 140 69 227 10 87 10 95 5 95 -3 0 -7 17 -8 38
-3 81 -16 122 -70 227 -27 53 -93 144 -105 145 -4 0 -18 10 -31 23 -62 59
-161 111 -249 133 -10 2 -28 7 -40 10 -24 6 -166 12 -171 7z"/>
<path d="M577 2554 c-2 -2 -26 -7 -52 -10 -27 -3 -56 -9 -65 -14 -8 -4 -19 -9
-25 -11 -33 -9 -65 -24 -65 -31 0 -4 -9 -8 -20 -8 -11 0 -20 -4 -20 -9 0 -5
-9 -13 -20 -16 -36 -12 -193 -176 -195 -205 -1 -3 -10 -23 -22 -45 -19 -36
-37 -89 -51 -150 -7 -31 -7 -186 1 -225 10 -54 42 -140 70 -190 31 -54 128
-168 143 -169 6 -1 19 -9 28 -20 9 -10 45 -32 79 -49 55 -27 69 -33 99 -42 4
-1 27 -8 51 -15 71 -21 208 -17 312 9 22 6 52 19 88 38 20 10 37 16 37 11 0
-4 5 0 11 10 5 9 17 17 24 17 8 0 15 5 15 12 0 6 3 9 6 5 8 -8 134 115 134
130 0 7 3 13 8 13 25 0 110 207 108 263 -1 15 1 27 4 27 8 0 4 126 -5 175 -4
22 -9 48 -11 58 -4 24 -74 167 -91 187 -117 137 -224 207 -363 240 -51 12
-205 22 -213 14z"/>
<path d="M1825 1270 c-92 -19 -183 -58 -237 -100 -20 -17 -45 -30 -54 -30 -10
0 -14 -3 -11 -7 4 -3 -3 -15 -16 -27 -58 -55 -141 -188 -152 -244 -2 -12 -6
-26 -10 -31 -7 -12 -17 -93 -19 -161 -4 -103 25 -210 84 -310 36 -62 127 -170
143 -170 4 0 17 -9 29 -20 27 -25 152 -85 198 -95 48 -11 106 -18 149 -20 48
-1 74 2 166 19 43 9 133 49 183 83 142 95 231 227 268 397 12 50 10 177 -3
240 -14 69 -73 204 -96 218 -7 4 -8 8 -4 8 5 0 2 6 -5 14 -67 72 -120 121
-158 146 -49 31 -160 83 -160 75 0 -3 -9 -1 -19 4 -18 10 -73 19 -156 24 -22
2 -76 -4 -120 -13z"/>
<path d="M480 1255 c-167 -49 -298 -158 -374 -309 -134 -268 -66 -577 169
-762 69 -55 207 -114 285 -124 47 -5 166 -6 175 -1 6 3 19 6 30 7 50 6 86 18
164 56 180 89 308 269 335 472 9 64 9 60 7 66 -1 3 -3 25 -5 50 -3 55 -15 118
-26 145 -4 11 -14 35 -21 53 -20 54 -88 154 -137 200 -159 153 -391 209 -602
147z"/>
</g>
</svg>
